<mxfile host="app.diagrams.net" modified="2023-02-23T09:46:16.251Z" agent="5.0 (Macintosh; Intel Mac OS X 10_15_7) AppleWebKit/605.1.15 (KHTML, like Gecko) Version/16.2 Safari/605.1.15" etag="xRjVuBdXYslSlWEQJlr0" version="20.8.23" type="github">
  <diagram name="Page-1" id="zGwfKtvlQI2-6Zpr1AR8">
    <mxGraphModel dx="1020" dy="556" grid="0" gridSize="10" guides="1" tooltips="1" connect="1" arrows="1" fold="1" page="1" pageScale="1" pageWidth="1169" pageHeight="827" math="0" shadow="0">
      <root>
        <mxCell id="0" />
        <mxCell id="1" parent="0" />
        <mxCell id="HnesIwOtQmM73-7qtYo8-20" style="edgeStyle=orthogonalEdgeStyle;rounded=0;orthogonalLoop=1;jettySize=auto;html=1;exitX=1;exitY=0.25;exitDx=0;exitDy=0;entryX=0.027;entryY=0.344;entryDx=0;entryDy=0;entryPerimeter=0;" parent="1" source="HnesIwOtQmM73-7qtYo8-1" edge="1" target="HnesIwOtQmM73-7qtYo8-18">
          <mxGeometry relative="1" as="geometry">
            <mxPoint x="590" y="150" as="targetPoint" />
          </mxGeometry>
        </mxCell>
        <mxCell id="gwGypEU1_SFEQ6O_5os5-1" value="" style="edgeStyle=orthogonalEdgeStyle;rounded=0;orthogonalLoop=1;jettySize=auto;html=1;" edge="1" parent="1" source="HnesIwOtQmM73-7qtYo8-1" target="HnesIwOtQmM73-7qtYo8-27">
          <mxGeometry relative="1" as="geometry" />
        </mxCell>
        <mxCell id="HnesIwOtQmM73-7qtYo8-1" value="User input" style="rounded=0;whiteSpace=wrap;html=1;" parent="1" vertex="1">
          <mxGeometry x="300" y="120" width="100" height="60" as="geometry" />
        </mxCell>
        <mxCell id="HnesIwOtQmM73-7qtYo8-14" style="edgeStyle=orthogonalEdgeStyle;rounded=0;orthogonalLoop=1;jettySize=auto;html=1;exitX=0.217;exitY=0.096;exitDx=0;exitDy=0;entryX=0.287;entryY=1.016;entryDx=0;entryDy=0;entryPerimeter=0;exitPerimeter=0;" parent="1" source="HnesIwOtQmM73-7qtYo8-27" target="HnesIwOtQmM73-7qtYo8-10" edge="1">
          <mxGeometry relative="1" as="geometry">
            <mxPoint x="154.2157287525381" y="121.71572875253798" as="sourcePoint" />
          </mxGeometry>
        </mxCell>
        <mxCell id="HnesIwOtQmM73-7qtYo8-15" style="edgeStyle=orthogonalEdgeStyle;rounded=0;orthogonalLoop=1;jettySize=auto;html=1;exitX=0.726;exitY=1.008;exitDx=0;exitDy=0;entryX=0.801;entryY=0.103;entryDx=0;entryDy=0;entryPerimeter=0;exitPerimeter=0;" parent="1" source="HnesIwOtQmM73-7qtYo8-10" target="HnesIwOtQmM73-7qtYo8-27" edge="1">
          <mxGeometry relative="1" as="geometry">
            <mxPoint x="213.1400000000001" y="124.2399999999999" as="targetPoint" />
          </mxGeometry>
        </mxCell>
        <mxCell id="HnesIwOtQmM73-7qtYo8-10" value="User entity (database)" style="shape=partialRectangle;whiteSpace=wrap;html=1;left=0;right=0;fillColor=none;rounded=0;strokeColor=default;fontFamily=Helvetica;fontSize=12;fontColor=default;" parent="1" vertex="1">
          <mxGeometry x="145" y="20" width="120" height="40" as="geometry" />
        </mxCell>
        <mxCell id="HnesIwOtQmM73-7qtYo8-17" value="Verification code sent" style="shape=card;whiteSpace=wrap;html=1;" parent="1" vertex="1">
          <mxGeometry x="150" y="350" width="110" height="70" as="geometry" />
        </mxCell>
        <mxCell id="HnesIwOtQmM73-7qtYo8-86" style="edgeStyle=orthogonalEdgeStyle;rounded=0;orthogonalLoop=1;jettySize=auto;html=1;exitX=1;exitY=0.5;exitDx=0;exitDy=0;entryX=0.004;entryY=0.566;entryDx=0;entryDy=0;entryPerimeter=0;" parent="1" source="HnesIwOtQmM73-7qtYo8-18" target="HnesIwOtQmM73-7qtYo8-26" edge="1">
          <mxGeometry relative="1" as="geometry">
            <Array as="points">
              <mxPoint x="717.5" y="150" />
              <mxPoint x="717.5" y="150" />
            </Array>
          </mxGeometry>
        </mxCell>
        <mxCell id="HnesIwOtQmM73-7qtYo8-92" style="edgeStyle=orthogonalEdgeStyle;rounded=0;orthogonalLoop=1;jettySize=auto;html=1;exitX=0.5;exitY=0;exitDx=0;exitDy=0;entryX=0.5;entryY=1;entryDx=0;entryDy=0;" parent="1" source="HnesIwOtQmM73-7qtYo8-18" target="HnesIwOtQmM73-7qtYo8-88" edge="1">
          <mxGeometry relative="1" as="geometry" />
        </mxCell>
        <mxCell id="gwGypEU1_SFEQ6O_5os5-2" value="" style="edgeStyle=orthogonalEdgeStyle;rounded=0;orthogonalLoop=1;jettySize=auto;html=1;entryX=1;entryY=0.75;entryDx=0;entryDy=0;exitX=0.023;exitY=0.649;exitDx=0;exitDy=0;exitPerimeter=0;" edge="1" parent="1" source="HnesIwOtQmM73-7qtYo8-18" target="HnesIwOtQmM73-7qtYo8-1">
          <mxGeometry relative="1" as="geometry">
            <mxPoint x="591" y="163" as="sourcePoint" />
          </mxGeometry>
        </mxCell>
        <mxCell id="HnesIwOtQmM73-7qtYo8-18" value="Password changing system" style="ellipse;whiteSpace=wrap;html=1;aspect=fixed;rounded=0;strokeColor=default;fontFamily=Helvetica;fontSize=12;fontColor=default;fillColor=none;" parent="1" vertex="1">
          <mxGeometry x="590" y="100" width="100" height="100" as="geometry" />
        </mxCell>
        <mxCell id="HnesIwOtQmM73-7qtYo8-21" value="email, new password,&amp;nbsp;&lt;br&gt;verification code" style="text;html=1;align=center;verticalAlign=middle;resizable=0;points=[];autosize=1;strokeColor=none;fillColor=none;" parent="1" vertex="1">
          <mxGeometry x="418.5" y="100" width="137" height="40" as="geometry" />
        </mxCell>
        <mxCell id="HnesIwOtQmM73-7qtYo8-23" value="exist confirm" style="text;html=1;align=center;verticalAlign=middle;resizable=0;points=[];autosize=1;strokeColor=none;fillColor=none;" parent="1" vertex="1">
          <mxGeometry x="222.5" y="60" width="90" height="30" as="geometry" />
        </mxCell>
        <mxCell id="HnesIwOtQmM73-7qtYo8-24" value="email" style="text;html=1;align=center;verticalAlign=middle;resizable=0;points=[];autosize=1;strokeColor=none;fillColor=none;" parent="1" vertex="1">
          <mxGeometry x="133" y="64" width="47" height="26" as="geometry" />
        </mxCell>
        <mxCell id="HnesIwOtQmM73-7qtYo8-26" value="Password updated;&lt;br&gt;Back to login page" style="shape=card;whiteSpace=wrap;html=1;" parent="1" vertex="1">
          <mxGeometry x="770" y="105" width="130" height="80" as="geometry" />
        </mxCell>
        <mxCell id="HnesIwOtQmM73-7qtYo8-79" style="edgeStyle=orthogonalEdgeStyle;rounded=0;orthogonalLoop=1;jettySize=auto;html=1;exitX=0.5;exitY=1;exitDx=0;exitDy=0;entryX=0.5;entryY=0;entryDx=0;entryDy=0;" parent="1" source="HnesIwOtQmM73-7qtYo8-27" target="HnesIwOtQmM73-7qtYo8-78" edge="1">
          <mxGeometry relative="1" as="geometry" />
        </mxCell>
        <mxCell id="HnesIwOtQmM73-7qtYo8-27" value="Email verifying system" style="ellipse;whiteSpace=wrap;html=1;aspect=fixed;rounded=0;strokeColor=default;fontFamily=Helvetica;fontSize=12;fontColor=default;fillColor=none;" parent="1" vertex="1">
          <mxGeometry x="160" y="105" width="90" height="90" as="geometry" />
        </mxCell>
        <mxCell id="HnesIwOtQmM73-7qtYo8-37" style="edgeStyle=orthogonalEdgeStyle;rounded=0;orthogonalLoop=1;jettySize=auto;html=1;exitX=1;exitY=0.5;exitDx=0;exitDy=0;entryX=0;entryY=0.5;entryDx=0;entryDy=0;" parent="1" source="HnesIwOtQmM73-7qtYo8-33" target="HnesIwOtQmM73-7qtYo8-36" edge="1">
          <mxGeometry relative="1" as="geometry" />
        </mxCell>
        <mxCell id="HnesIwOtQmM73-7qtYo8-33" value="User input" style="rounded=0;whiteSpace=wrap;html=1;" parent="1" vertex="1">
          <mxGeometry x="117.5" y="605" width="100" height="60" as="geometry" />
        </mxCell>
        <mxCell id="HnesIwOtQmM73-7qtYo8-60" style="edgeStyle=orthogonalEdgeStyle;rounded=0;orthogonalLoop=1;jettySize=auto;html=1;exitX=0.5;exitY=0;exitDx=0;exitDy=0;entryX=0.5;entryY=1;entryDx=0;entryDy=0;" parent="1" source="HnesIwOtQmM73-7qtYo8-34" target="HnesIwOtQmM73-7qtYo8-56" edge="1">
          <mxGeometry relative="1" as="geometry" />
        </mxCell>
        <mxCell id="HnesIwOtQmM73-7qtYo8-107" style="edgeStyle=orthogonalEdgeStyle;rounded=0;orthogonalLoop=1;jettySize=auto;html=1;exitX=1;exitY=0.5;exitDx=0;exitDy=0;entryX=0;entryY=0.5;entryDx=0;entryDy=0;entryPerimeter=0;" parent="1" source="HnesIwOtQmM73-7qtYo8-34" target="HnesIwOtQmM73-7qtYo8-55" edge="1">
          <mxGeometry relative="1" as="geometry" />
        </mxCell>
        <mxCell id="HnesIwOtQmM73-7qtYo8-34" value="Password changing&lt;br&gt;system" style="ellipse;whiteSpace=wrap;html=1;aspect=fixed;rounded=0;strokeColor=default;fontFamily=Helvetica;fontSize=12;fontColor=default;fillColor=none;" parent="1" vertex="1">
          <mxGeometry x="657" y="585" width="100" height="100" as="geometry" />
        </mxCell>
        <mxCell id="gwGypEU1_SFEQ6O_5os5-4" style="edgeStyle=orthogonalEdgeStyle;rounded=0;orthogonalLoop=1;jettySize=auto;html=1;entryX=0.5;entryY=0;entryDx=0;entryDy=0;exitX=0.509;exitY=0.983;exitDx=0;exitDy=0;exitPerimeter=0;" edge="1" parent="1" source="HnesIwOtQmM73-7qtYo8-70" target="HnesIwOtQmM73-7qtYo8-36">
          <mxGeometry relative="1" as="geometry">
            <mxPoint x="438" y="536" as="sourcePoint" />
          </mxGeometry>
        </mxCell>
        <mxCell id="gwGypEU1_SFEQ6O_5os5-7" style="edgeStyle=orthogonalEdgeStyle;rounded=0;orthogonalLoop=1;jettySize=auto;html=1;exitX=0.95;exitY=0.3;exitDx=0;exitDy=0;entryX=0.044;entryY=0.294;entryDx=0;entryDy=0;exitPerimeter=0;entryPerimeter=0;" edge="1" parent="1" source="HnesIwOtQmM73-7qtYo8-36" target="HnesIwOtQmM73-7qtYo8-34">
          <mxGeometry relative="1" as="geometry" />
        </mxCell>
        <mxCell id="gwGypEU1_SFEQ6O_5os5-8" style="edgeStyle=orthogonalEdgeStyle;rounded=0;orthogonalLoop=1;jettySize=auto;html=1;entryX=0.931;entryY=0.756;entryDx=0;entryDy=0;entryPerimeter=0;exitX=0.072;exitY=0.753;exitDx=0;exitDy=0;exitPerimeter=0;" edge="1" parent="1" source="HnesIwOtQmM73-7qtYo8-34" target="HnesIwOtQmM73-7qtYo8-36">
          <mxGeometry relative="1" as="geometry">
            <mxPoint x="582.7777777777777" y="635" as="targetPoint" />
            <mxPoint x="648" y="672" as="sourcePoint" />
          </mxGeometry>
        </mxCell>
        <mxCell id="HnesIwOtQmM73-7qtYo8-36" value="Password verifying&lt;br&gt;system" style="ellipse;whiteSpace=wrap;html=1;aspect=fixed;rounded=0;strokeColor=default;fontFamily=Helvetica;fontSize=12;fontColor=default;fillColor=none;" parent="1" vertex="1">
          <mxGeometry x="387.5" y="585" width="100" height="100" as="geometry" />
        </mxCell>
        <mxCell id="HnesIwOtQmM73-7qtYo8-38" value="repeated original password,&lt;br&gt;new password" style="text;html=1;align=center;verticalAlign=middle;resizable=0;points=[];autosize=1;strokeColor=none;fillColor=none;" parent="1" vertex="1">
          <mxGeometry x="220.5" y="615" width="165" height="40" as="geometry" />
        </mxCell>
        <mxCell id="HnesIwOtQmM73-7qtYo8-48" style="edgeStyle=orthogonalEdgeStyle;rounded=0;orthogonalLoop=1;jettySize=auto;html=1;exitX=0.25;exitY=0;exitDx=0;exitDy=0;entryX=0.244;entryY=0.93;entryDx=0;entryDy=0;entryPerimeter=0;" parent="1" source="HnesIwOtQmM73-7qtYo8-44" target="HnesIwOtQmM73-7qtYo8-36" edge="1">
          <mxGeometry relative="1" as="geometry" />
        </mxCell>
        <mxCell id="HnesIwOtQmM73-7qtYo8-44" value="User entity (database)" style="shape=partialRectangle;whiteSpace=wrap;html=1;left=0;right=0;fillColor=none;rounded=0;strokeColor=default;fontFamily=Helvetica;fontSize=12;fontColor=default;" parent="1" vertex="1">
          <mxGeometry x="387.5" y="755" width="100" height="40" as="geometry" />
        </mxCell>
        <mxCell id="HnesIwOtQmM73-7qtYo8-49" style="edgeStyle=orthogonalEdgeStyle;rounded=0;orthogonalLoop=1;jettySize=auto;html=1;exitX=0.75;exitY=0.932;exitDx=0;exitDy=0;entryX=0.75;entryY=0;entryDx=0;entryDy=0;exitPerimeter=0;" parent="1" source="HnesIwOtQmM73-7qtYo8-36" target="HnesIwOtQmM73-7qtYo8-44" edge="1">
          <mxGeometry relative="1" as="geometry">
            <mxPoint x="537.5" y="761" as="sourcePoint" />
            <mxPoint x="537.5" y="685" as="targetPoint" />
          </mxGeometry>
        </mxCell>
        <mxCell id="HnesIwOtQmM73-7qtYo8-55" value="Password updated;&lt;br&gt;go to user profile page" style="shape=card;whiteSpace=wrap;html=1;" parent="1" vertex="1">
          <mxGeometry x="824.5" y="595" width="130" height="80" as="geometry" />
        </mxCell>
        <mxCell id="HnesIwOtQmM73-7qtYo8-56" value="User entity (database)" style="shape=partialRectangle;whiteSpace=wrap;html=1;left=0;right=0;fillColor=none;rounded=0;strokeColor=default;fontFamily=Helvetica;fontSize=12;fontColor=default;" parent="1" vertex="1">
          <mxGeometry x="647" y="505" width="120" height="40" as="geometry" />
        </mxCell>
        <mxCell id="HnesIwOtQmM73-7qtYo8-57" value="new password" style="text;html=1;align=center;verticalAlign=middle;resizable=0;points=[];autosize=1;strokeColor=none;fillColor=none;" parent="1" vertex="1">
          <mxGeometry x="706.5" y="548" width="95" height="26" as="geometry" />
        </mxCell>
        <mxCell id="HnesIwOtQmM73-7qtYo8-61" value="new password, user id" style="text;html=1;align=center;verticalAlign=middle;resizable=0;points=[];autosize=1;strokeColor=none;fillColor=none;" parent="1" vertex="1">
          <mxGeometry x="493" y="595" width="137" height="26" as="geometry" />
        </mxCell>
        <mxCell id="HnesIwOtQmM73-7qtYo8-62" value="user id,&lt;br&gt;original password" style="text;html=1;align=center;verticalAlign=middle;resizable=0;points=[];autosize=1;strokeColor=none;fillColor=none;" parent="1" vertex="1">
          <mxGeometry x="459" y="697" width="111" height="40" as="geometry" />
        </mxCell>
        <mxCell id="HnesIwOtQmM73-7qtYo8-65" value="validation confirm" style="text;html=1;align=center;verticalAlign=middle;resizable=0;points=[];autosize=1;strokeColor=none;fillColor=none;" parent="1" vertex="1">
          <mxGeometry x="300" y="697" width="111" height="26" as="geometry" />
        </mxCell>
        <mxCell id="HnesIwOtQmM73-7qtYo8-70" value="user id" style="text;html=1;align=center;verticalAlign=middle;resizable=0;points=[];autosize=1;strokeColor=none;fillColor=none;" parent="1" vertex="1">
          <mxGeometry x="407.5" y="505" width="60" height="30" as="geometry" />
        </mxCell>
        <mxCell id="HnesIwOtQmM73-7qtYo8-81" style="edgeStyle=orthogonalEdgeStyle;rounded=0;orthogonalLoop=1;jettySize=auto;html=1;exitX=0.5;exitY=1;exitDx=0;exitDy=0;entryX=0.5;entryY=0;entryDx=0;entryDy=0;entryPerimeter=0;" parent="1" source="HnesIwOtQmM73-7qtYo8-78" target="HnesIwOtQmM73-7qtYo8-17" edge="1">
          <mxGeometry relative="1" as="geometry" />
        </mxCell>
        <mxCell id="HnesIwOtQmM73-7qtYo8-78" value="Sending verification email" style="ellipse;whiteSpace=wrap;html=1;aspect=fixed;rounded=0;strokeColor=default;fontFamily=Helvetica;fontSize=12;fontColor=default;fillColor=none;" parent="1" vertex="1">
          <mxGeometry x="160" y="230" width="90" height="90" as="geometry" />
        </mxCell>
        <mxCell id="HnesIwOtQmM73-7qtYo8-82" value="email" style="text;html=1;align=center;verticalAlign=middle;resizable=0;points=[];autosize=1;strokeColor=none;fillColor=none;" parent="1" vertex="1">
          <mxGeometry x="202.5" y="195" width="50" height="30" as="geometry" />
        </mxCell>
        <mxCell id="HnesIwOtQmM73-7qtYo8-88" value="User entity (database)" style="shape=partialRectangle;whiteSpace=wrap;html=1;left=0;right=0;fillColor=none;rounded=0;strokeColor=default;fontFamily=Helvetica;fontSize=12;fontColor=default;" parent="1" vertex="1">
          <mxGeometry x="580" y="20" width="120" height="40" as="geometry" />
        </mxCell>
        <mxCell id="HnesIwOtQmM73-7qtYo8-93" value="password" style="text;html=1;align=center;verticalAlign=middle;resizable=0;points=[];autosize=1;strokeColor=none;fillColor=none;" parent="1" vertex="1">
          <mxGeometry x="638" y="67" width="69" height="26" as="geometry" />
        </mxCell>
        <mxCell id="gwGypEU1_SFEQ6O_5os5-3" value="&lt;span style=&quot;caret-color: rgb(0, 0, 0); color: rgb(0, 0, 0); font-family: Helvetica; font-size: 12px; font-style: normal; font-variant-caps: normal; font-weight: 400; letter-spacing: normal; text-align: center; text-indent: 0px; text-transform: none; word-spacing: 0px; -webkit-text-stroke-width: 0px; background-color: rgb(251, 251, 251); text-decoration: none; float: none; display: inline !important;&quot;&gt;incorrect verification code&lt;/span&gt;" style="text;whiteSpace=wrap;html=1;" vertex="1" parent="1">
          <mxGeometry x="425.9966666666668" y="158.99666666666678" width="164" height="36" as="geometry" />
        </mxCell>
        <mxCell id="gwGypEU1_SFEQ6O_5os5-10" value="wrong original password,&lt;br style=&quot;border-color: var(--border-color);&quot;&gt;&lt;span style=&quot;&quot;&gt;identical password&lt;/span&gt;" style="text;html=1;align=center;verticalAlign=middle;resizable=0;points=[];autosize=1;strokeColor=none;fillColor=none;" vertex="1" parent="1">
          <mxGeometry x="496" y="640" width="151" height="40" as="geometry" />
        </mxCell>
      </root>
    </mxGraphModel>
  </diagram>
</mxfile>
